<svg xmlns="http://www.w3.org/2000/svg" xmlns:xlink="http://www.w3.org/1999/xlink" width="378px" height="374px" viewBox="0 0 378 374"><title>shape-bg</title><g id="Page-1" stroke="none" stroke-width="1" fill="none" fill-rule="evenodd"><g id="Contact-Us" transform="translate(-991.000000, -830.000000)" fill="#DEE0FF"><g id="Group-42" transform="translate(95.000000, 830.500000)"><path d="M919,186.5 L907.5,198 L896,186.5 L907.5,175 L919,186.5 M962,187 L953,196 L944,187 L953,178 L962,187 M1006,186.5 L998.5,194 L991,186.5 L998.5,179 L1006,186.5 M1050,187 L1044.00226,193 L1038,187 L1044.00226,181 L1050,187 M1095,187 L1090,192 L1085,187 L1090,182 L1095,187 M940,209.5 L929.5,220 L919,209.5 L929.5,199 L940,209.5 M984,209.5 L975.502332,218 L967,209.5 L975.502332,201 L984,209.5 M1028,209.5 L1021.5,216 L1015,209.5 L1021.5,203 L1028,209.5 M1072,210 L1067,215 L1062,210 L1067,205 L1072,210 M1117,209.5 L1112.5,214 L1108,209.5 L1112.5,205 L1117,209.5 M962,232 L953,241 L944,232 L953,223 L962,232 M1006,231.5 L998.5,239 L991,231.5 L998.5,224 L1006,231.5 M1050,232 L1044.00226,238 L1038,232 L1044.00226,226 L1050,232 M1095,232 L1090,237 L1085,232 L1090,227 L1095,232 M1139,232 L1135,236 L1131,232 L1135,228 L1139,232 M984,254.5 L975.502332,263 L967,254.5 L975.502332,246 L984,254.5 M1028,254.5 L1021.5,261 L1015,254.5 L1021.5,248 L1028,254.5 M1072,255 L1067,260 L1062,255 L1067,250 L1072,255 M1117,254.5 L1112.5,259 L1108,254.5 L1112.5,250 L1117,254.5 M1162,255 L1158.00255,259 L1154,255 L1158.00255,251 L1162,255 M1006,278.5 L998.5,286 L991,278.5 L998.5,271 L1006,278.5 M1050,277 L1044.00226,283 L1038,277 L1044.00226,271 L1050,277 M1095,278 L1090,283 L1085,278 L1090,273 L1095,278 M1139,278 L1135,282 L1131,278 L1135,274 L1139,278 M1184,277 L1181,280 L1178,277 L1181,274 L1184,277 M1028,300.5 L1021.5,307 L1015,300.5 L1021.5,294 L1028,300.5 M1072,300 L1067,305 L1062,300 L1067,295 L1072,300 M1117,300.5 L1112.5,305 L1108,300.5 L1112.5,296 L1117,300.5 M1162,300 L1158.00255,304 L1154,300 L1158.00255,296 L1162,300 M1206,300.5 L1203.50197,303 L1201,300.5 L1203.50197,298 L1206,300.5 M1050,323 L1044.00226,329 L1038,323 L1044.00226,317 L1050,323 M1095,323 L1090,328 L1085,323 L1090,318 L1095,323 M1139,323 L1135,327 L1131,323 L1135,319 L1139,323 M1184,323 L1181,326 L1178,323 L1181,320 L1184,323 M1229,323.5 L1226.5,326 L1224,323.5 L1226.5,321 L1229,323.5 M1072,346 L1067,351 L1062,346 L1067,341 L1072,346 M1117,345.5 L1112.5,350 L1108,345.5 L1112.5,341 L1117,345.5 M1162,346 L1158.00255,350 L1154,346 L1158.00255,342 L1162,346 M1206,346.5 L1203.50197,349 L1201,346.5 L1203.50197,344 L1206,346.5 M1252,346.5 L1249.5,349 L1247,346.5 L1249.5,344 L1252,346.5 M1095,368 L1090,373 L1085,368 L1090,363 L1095,368 M1139,368 L1135,372 L1131,368 L1135,364 L1139,368 M1184,369 L1181,372 L1178,369 L1181,366 L1184,369 M1229,368.5 L1226.5,371 L1224,368.5 L1226.5,366 L1229,368.5 M1274,369.000216 L1272,371 L1270,369.000216 L1272,367 L1274,369.000216 M940,163.5 L929.5,174 L919,163.5 L929.5,153 L940,163.5 M984,163.5 L975.502332,172 L967,163.5 L975.502332,155 L984,163.5 M1028,163.5 L1021.5,170 L1015,163.5 L1021.5,157 L1028,163.5 M1072,163 L1067,168 L1062,163 L1067,158 L1072,163 M1117,163.5 L1112.5,168 L1108,163.5 L1112.5,159 L1117,163.5 M962,141 L953,150 L944,141 L953,132 L962,141 M1006,141.5 L998.5,149 L991,141.5 L998.5,134 L1006,141.5 M1050,141 L1044.00226,147 L1038,141 L1044.00226,135 L1050,141 M1095,141 L1090,146 L1085,141 L1090,136 L1095,141 M1139,141 L1135,145 L1131,141 L1135,137 L1139,141 M984,118.5 L975.502332,127 L967,118.5 L975.502332,110 L984,118.5 M1028,118.5 L1021.5,125 L1015,118.5 L1021.5,112 L1028,118.5 M1072,118 L1067,123 L1062,118 L1067,113 L1072,118 M1117,118.5 L1112.5,123 L1108,118.5 L1112.5,114 L1117,118.5 M1162,118 L1158.00255,122 L1154,118 L1158.00255,114 L1162,118 M1006,94.5 L998.5,102 L991,94.5 L998.5,87 L1006,94.5 M1050,96 L1044.00226,102 L1038,96 L1044.00226,90 L1050,96 M1095,95 L1090,100 L1085,95 L1090,90 L1095,95 M1139,95 L1135,99 L1131,95 L1135,91 L1139,95 M1184,96 L1181,99 L1178,96 L1181,93 L1184,96 M1028,73.5 L1021.5,80 L1015,73.5 L1021.5,67 L1028,73.5 M1072,73 L1067,78 L1062,73 L1067,68 L1072,73 M1117,72.5 L1112.5,77 L1108,72.5 L1112.5,68 L1117,72.5 M1162,73 L1158.00255,77 L1154,73 L1158.00255,69 L1162,73 M1206,73.5 L1203.50197,76 L1201,73.5 L1203.50197,71 L1206,73.5 M1050,50 L1044.00226,56 L1038,50 L1044.00226,44 L1050,50 M1095,50 L1090,55 L1085,50 L1090,45 L1095,50 M1139,50 L1135,54 L1131,50 L1135,46 L1139,50 M1184,50 L1181,53 L1178,50 L1181,47 L1184,50 M1229,49.5 L1226.5,52 L1224,49.5 L1226.5,47 L1229,49.5 M1072,27 L1067,32 L1062,27 L1067,22 L1072,27 M1117,27.5 L1112.5,32 L1108,27.5 L1112.5,23 L1117,27.5 M1162,27 L1158.00255,31 L1154,27 L1158.00255,23 L1162,27 M1206,26.5 L1203.50197,29 L1201,26.5 L1203.50197,24 L1206,26.5 M1252,26.5 L1249.5,29 L1247,26.5 L1249.5,24 L1252,26.5 M1095,5 L1090,10 L1085,5 L1090,0 L1095,5 M1139,5 L1135,9 L1131,5 L1135,1 L1139,5 M1184,4 L1181,7 L1178,4 L1181,1 L1184,4 M1229,4.5 L1226.5,7 L1224,4.5 L1226.5,2 L1229,4.5 M1274,4 L1272,6 L1270,4 L1272,2 L1274,4" id="shape-bg"></path></g></g></g></svg>