<svg xmlns="http://www.w3.org/2000/svg" width="660" height="660" viewBox="0 0 660 660"><path d="M9.85 272.15a9.85 9.85 0 1 1 0-19.7 9.85 9.85 0 0 1 0 19.7Zm640.3 0a9.86 9.86 0 1 1-.03-19.72 9.86 9.86 0 0 1 .03 19.72Zm0-135.42a9.86 9.86 0 1 1-.03-19.73 9.86 9.86 0 0 1 .03 19.73Zm0 270.84a9.86 9.86 0 1 1-.03-19.73 9.86 9.86 0 0 1 .03 19.73Zm0 135.42a9.86 9.86 0 1 1-.03-19.72 9.86 9.86 0 0 1 .03 19.72ZM387.85 9.85a9.85 9.85 0 1 1 19.7 0 9.85 9.85 0 0 1-19.7 0Zm135.42 0a9.85 9.85 0 1 1 19.74.01 9.85 9.85 0 0 1-19.74-.01Zm-270.84 0a9.85 9.85 0 1 1 19.74.01 9.85 9.85 0 0 1-19.74-.01Zm-135.42 0a9.85 9.85 0 1 1 19.7 0 9.85 9.85 0 0 1-19.7 0Zm270.84 640.3a9.86 9.86 0 1 1 19.72-.03 9.86 9.86 0 0 1-19.72.03Zm135.42 0a9.86 9.86 0 1 1 19.73-.03 9.86 9.86 0 0 1-19.73.03Zm-270.84 0a9.86 9.86 0 1 1 19.73-.03 9.86 9.86 0 0 1-19.73.03Zm-135.42 0a9.86 9.86 0 1 1 19.72-.03 9.86 9.86 0 0 1-19.72.03ZM9.85 136.73A9.85 9.85 0 1 1 9.86 117a9.85 9.85 0 0 1-.01 19.74Zm0 270.84a9.85 9.85 0 1 1 .01-19.74 9.85 9.85 0 0 1-.01 19.74Zm0 135.42a9.85 9.85 0 1 1 0-19.7 9.85 9.85 0 0 1 0 19.7Zm387.2 10.52a19.72 19.72 0 1 1 0-39.44 19.72 19.72 0 0 1 0 39.44Zm-134.1 0a19.72 19.72 0 1 1-.01-39.44 19.72 19.72 0 0 1 0 39.44Zm-136.1-416.78a9.86 9.86 0 1 1 .03-19.71 9.86 9.86 0 0 1-.02 19.71Zm406.3 0a9.86 9.86 0 1 1-.03-19.73 9.86 9.86 0 0 1 .02 19.73ZM126.84 543a9.86 9.86 0 1 1 .02-19.73 9.86 9.86 0 0 1-.01 19.73Zm406.3 0a9.86 9.86 0 1 1-.04-19.72 9.86 9.86 0 0 1 .03 19.72Z" fill="#DEE0FF" fill-rule="evenodd"></path></svg>