<svg xmlns="http://www.w3.org/2000/svg" xmlns:xlink="http://www.w3.org/1999/xlink" width="106px" height="30px" viewBox="0 0 106 30"><title>clutch-co-vector-logo</title><g id="Page-1" stroke="none" stroke-width="1" fill="none" fill-rule="evenodd"><g id="Home-2---Development-V2" transform="translate(-504.000000, -6238.000000)" fill="#DEE0FF" fill-rule="nonzero"><g id="Group-29" transform="translate(80.000000, 5958.000000)"><g id="Group-57" transform="translate(50.000000, 279.000000)"><g id="Group-35" transform="translate(374.000000, 1.000000)"><polygon id="Path" points="27.5052632 0 32.3715789 0 32.3715789 30 27.5052632 30"></polygon><path d="M49.2978947,20.4929577 C49.2978947,25.1408451 45.4894737,25.5633803 44.22,25.5633803 C41.2578947,25.5633803 40.8347368,22.8169014 40.8347368,21.3380282 L40.8347368,9.71830986 L35.9684211,9.71830986 L35.9684211,21.1267606 C35.9684211,23.8732394 36.8147368,26.4084507 38.5073684,27.8873239 C39.9884211,29.3661972 41.8926316,30 44.22,30 C45.9126316,30 48.0284211,29.5774648 49.2978947,28.3098592 L49.2978947,30 L54.1642105,30 L54.1642105,9.71830986 L49.2978947,9.71830986 C49.2978947,9.71830986 49.2978947,20.4929577 49.2978947,20.4929577 Z" id="Path"></path><polygon id="Path" points="63.6852632 2.32394366 58.8189474 2.32394366 58.8189474 9.71830986 55.2221053 9.71830986 55.2221053 14.3661972 58.8189474 14.3661972 58.8189474 30 63.6852632 30 63.6852632 14.3661972 67.2821053 14.3661972 67.2821053 9.71830986 63.6852632 9.71830986"></polygon><path d="M82.5157895,23.8732394 C81.4578947,24.7183099 79.9768421,25.3521127 78.4957895,25.3521127 C75.1105263,25.3521127 72.7831579,22.8169014 72.7831579,19.4366197 C72.7831579,16.056338 75.1105263,13.7323944 78.4957895,13.7323944 C79.9768421,13.7323944 81.4578947,14.1549296 82.5157895,15.2112676 L83.1505263,15.8450704 L86.5357895,12.6760563 L85.6894737,12.0422535 C83.7852632,10.3521127 81.2463158,9.29577465 78.4957895,9.29577465 C72.5715789,9.29577465 68.1284211,13.7323944 68.1284211,19.6478873 C68.1284211,25.5633803 72.5715789,30 78.4957895,30 C81.2463158,30 83.7852632,28.943662 85.6894737,27.2535211 L86.5357895,26.6197183 L83.1505263,23.2394366 L82.5157895,23.8732394 Z" id="Path"></path><path d="M103.673684,11.4084507 C102.192632,9.92957746 100.711579,9.29577465 98.3842105,9.29577465 C96.6915789,9.29577465 94.9989474,9.71830986 93.7294737,10.9859155 L93.7294737,0 L88.8631579,0 L88.8631579,30 L93.7294737,30 L93.7294737,18.8028169 C93.7294737,14.1549296 96.9031579,13.7323944 98.1726316,13.7323944 C101.134737,13.7323944 100.923158,16.4788732 100.923158,17.9577465 L100.923158,29.7887324 L105.789474,29.7887324 L105.789474,18.1690141 C105.789474,15.4225352 105.154737,12.8873239 103.673684,11.4084507 Z" id="Path"></path><ellipse id="Oval" cx="78.2842105" cy="19.6478873" rx="3.38526316" ry="3.38028169"></ellipse><path d="M20.7347368,22.6056338 C19.0421053,24.2957746 16.5031579,25.3521127 13.7526316,25.3521127 C8.46315789,25.3521127 4.65473684,21.1267606 4.65473684,15.4225352 C4.65473684,9.71830986 8.46315789,5.49295775 13.9642105,5.49295775 C16.5031579,5.49295775 19.0421053,6.54929577 20.9463158,8.45070423 L21.5810526,9.08450704 L24.7547368,5.91549296 L24.12,5.28169014 C21.3694737,2.53521127 17.7726316,1.05633803 13.9642105,1.05633803 C5.92421053,0.845070423 0,7.18309859 0,15.4225352 C0,23.6619718 5.92421053,30 13.7526316,30 C17.5610526,30 21.3694737,28.5211268 23.9084211,25.7746479 L24.5431579,25.1408451 L21.3694737,21.971831 L20.7347368,22.6056338 Z" id="Path"></path></g></g></g></g></g></svg>