<svg xmlns="http://www.w3.org/2000/svg" width="116" height="30" viewBox="0 0 116 30"><path d="M11.2 2.8h2.54a8.65 8.65 0 0 1 4.57.57 8 8 0 0 1 3.65 4.82c.38 1.06.38 1.06 1.3.68h.7V.51H.07v1.47h.98c.86 0 1.68.38 2.23 1.04.9 1.45 1.06 3.08 1.06 11.56 0 9-.2 11.2-1.06 12.33-.44.58-1.12.94-1.85.97-1.36.24-1.36.22-1.36.81a.87.87 0 0 0 0 .62h15.08c.2-.4.2-.86 0-1.26-.36-.1-.74-.17-1.11-.22-.4-.04-.81-.13-1.2-.24A3.94 3.94 0 0 1 11.2 24a50.6 50.6 0 0 1-.34-6.32v-1.74h.9c1.1-.03 2.22.09 3.3.35a4.07 4.07 0 0 1 1.91 2.91l.2.68h1.36v-9.75h-1.25l-.2.95a3.92 3.92 0 0 1-2.03 2.9c-.52.16-1.08.2-1.62.11h-2.57v-2.38c0-2.46.14-7.66.23-8.47l.1-.44Zm104.29 17.46a8.08 8.08 0 0 0-4.62-3.46 11.18 11.18 0 0 1-3.98-2.2 2.19 2.19 0 0 1-.65-1.96c0-.7.28-1.36.78-1.85.69-.71 1.71-1 2.67-.73a5.58 5.58 0 0 1 3.95 4.14c.35 1 .4 1 1.04.73l.4-.15V9.29l-.28-.13a17.42 17.42 0 0 0-6.84-.92c-2 .05-3.91.83-5.35 2.2a6.04 6.04 0 0 0-1.94 4.75 5.19 5.19 0 0 0 1.51 3.61 9.07 9.07 0 0 0 3.8 2.2c3.45 1.35 4.45 2.2 4.45 3.77a2.91 2.91 0 0 1-2.23 2.89c-.78.17-1.58.17-2.36 0a6.81 6.81 0 0 1-4.17-4.65l-.29-.7h-.4c-.2.01-.38.05-.56.13h-.22v6.25h.38c1.5.5 3.06.84 4.63 1.01h2.23c.97.07 1.94-.01 2.88-.26a6.9 6.9 0 0 0 5.66-6.39 5.43 5.43 0 0 0-.5-2.8Zm-21-11.39a10.39 10.39 0 0 0-8.4.2 9.7 9.7 0 0 0-5.1 6.01 11.63 11.63 0 0 0-.6 4.4c-.02.82.05 1.63.2 2.43a9.84 9.84 0 0 0 8 7.88c1.3.16 2.6.16 3.9 0 1.34-.23 2.63-.72 3.79-1.43a6.65 6.65 0 0 0 2.36-2.2 1.1 1.1 0 0 0-.53-.68c-.26.09-.5.21-.72.37a6.43 6.43 0 0 1-3.74 1.04 5.99 5.99 0 0 1-4.75-1.85 5.27 5.27 0 0 1-1.13-1.5 10.14 10.14 0 0 1-1.1-4.4v-.86h12.35v-.44c.03-.44.03-.89 0-1.33a8.8 8.8 0 0 0-4.52-7.64Zm-6.21 7.62h-1.56v-1.3c.51-3.32 1.78-5.3 3.34-5.3 1.56 0 2.23 1.96 2.52 5.55v1h-1.34l-2.96.05ZM56.23 8.15a4.73 4.73 0 0 0-2.22.46 7.42 7.42 0 0 0-3.46 3.41l-.29.53v-4.4h-.1c-.28 0-8.52 1.63-8.79 1.74-.27.1-.18.13-.18.53s0 .46.18.48l.87.18c.5 0 .95.24 1.25.63.55.73.67 2 .67 7.45.1 2.45 0 4.9-.32 7.33a1.82 1.82 0 0 1-1.53 1.43l-.76.16h-.3v.61a.87.87 0 0 0 0 .64h12.47v-.64c.04-.2.04-.43 0-.64a12.6 12.6 0 0 1-2.23-.28 2.2 2.2 0 0 1-1.18-2.2 75.8 75.8 0 0 1-.23-7.89c.05-2.86 0-3.04.25-3.23a4.04 4.04 0 0 1 2.6-.82c.9.02 1.76.24 2.55.64.27.15.56.26.87.33 0 0 2.22-5.33 2.22-5.57-.58-.67-1.46-1-2.34-.88ZM41.21 17.4a9.87 9.87 0 0 0-4.59-7.84 11.71 11.71 0 0 0-10.42-.29A9.98 9.98 0 0 0 21.32 15c-.84 2.75-.84 5.7 0 8.45a9.2 9.2 0 0 0 2.38 3.99 9.1 9.1 0 0 0 5.15 2.46c1.24.1 2.5.1 3.74 0a9.84 9.84 0 0 0 8.47-8.1c.22-1.46.27-2.94.15-4.4Zm-9.27 11c-2.22.67-3.9-1.47-4.45-5.96-.2-2.35-.2-4.72 0-7.07.44-3.61 1.58-5.44 3.34-5.44.72-.04 1.42.26 1.87.82 1.5 1.47 2.23 4.4 2.23 8.8.19 2.5-.21 5-1.16 7.31a3.38 3.38 0 0 1-1.83 1.44v.1ZM72.06 8.6a7.5 7.5 0 0 0-1.9 0c-1.2 0-2.4.25-3.5.75l-.69.28V4.84c.12-1.6.12-3.23 0-4.84a306 306 0 0 0-8.91 1.67.68.68 0 0 0 0 .51c0 .46 0 .44 1 .66.28.06.55.17.8.3.44.41.73.95.83 1.53.25 1.67.33 3.37.24 5.06v19.34l.6.13c.9.2 3.41.61 4.24.7 1.65.13 3.3.13 4.95 0a10.08 10.08 0 0 0 8.33-6.18c.41-1.08.7-2.2.85-3.35.13-1.55.08-3.11-.16-4.65a8.52 8.52 0 0 0-6.68-7.13Zm-5.84 19.44c0-.28-.23-9.93-.18-13.78v-3.02l.65-.15c.43-.07.87-.07 1.31 0 .48-.05.97.06 1.38.3a6.59 6.59 0 0 1 2.88 5.02c.16 1.6.16 3.22 0 4.83a10.52 10.52 0 0 1-2.59 6.32c-.44.4-.99.68-1.58.79-.45.08-.91.08-1.36 0-.42 0-.42-.13-.42-.3h-.1Z" fill="#DEE0FF" fill-rule="nonzero"></path></svg>