<svg xmlns="http://www.w3.org/2000/svg" xmlns:xlink="http://www.w3.org/1999/xlink" width="42px" height="42px" viewBox="0 0 42 42"><title>Google_"G"_Logo</title><g id="Page-1" stroke="none" stroke-width="1" fill="none" fill-rule="evenodd"><g id="IT-Services" transform="translate(-903.000000, -5577.000000)" fill-rule="nonzero"><g id="Testimonials" transform="translate(374.000000, 5125.000000)"><g id="Group-27" transform="translate(529.000000, 451.000000)"><g id="Google_&quot;G&quot;_Logo" transform="translate(0.000000, 1.000000)"><path d="M41.16,21.4772727 C41.16,19.9881818 41.0263636,18.5563636 40.7781818,17.1818182 L21,17.1818182 L21,25.3145455 L32.3018182,25.3145455 C31.8054545,27.93 30.3163636,30.1445455 28.0827273,31.6336364 L28.0827273,36.9218182 L34.8981818,36.9218182 C38.8690909,33.2563636 41.16,27.8727273 41.16,21.4772727 L41.16,21.4772727 Z" id="Path" fill="#4285F4"></path><path d="M21,42 C26.67,42 31.4236364,40.1290909 34.8981818,36.9218182 L28.0827273,31.6336364 C26.2118182,32.8936364 23.8254545,33.6572727 21,33.6572727 C15.54,33.6572727 10.9009091,29.9727273 9.24,25.0090909 L2.25272727,25.0090909 L2.25272727,30.4309091 C5.70818182,37.2845455 12.7909091,42 21,42 Z" id="Path" fill="#34A853"></path><path d="M9.24,24.99 C8.82,23.73 8.57181818,22.3936364 8.57181818,21 C8.57181818,19.6063636 8.82,18.27 9.24,17.01 L9.24,11.5881818 L2.25272727,11.5881818 C0.820909091,14.4136364 0,17.6018182 0,21 C0,24.3981818 0.820909091,27.5863636 2.25272727,30.4118182 L7.69363636,26.1736364 L9.24,24.99 Z" id="Path" fill="#FBBC05"></path><path d="M21,8.36181818 C24.0927273,8.36181818 26.8418182,9.43090909 29.0372727,11.4927273 L35.0509091,5.47909091 C31.4045455,2.08090909 26.67,0 21,0 C12.7909091,0 5.70818182,4.71545455 2.25272727,11.5881818 L9.24,17.01 C10.9009091,12.0463636 15.54,8.36181818 21,8.36181818 Z" id="Path" fill="#EA4335"></path></g></g></g></g></g></svg>