<svg xmlns="http://www.w3.org/2000/svg" width="117" height="38" viewBox="0 0 117 38"><g fill="#DEE0FF" fill-rule="nonzero"><path d="M50 20c0 5.46-4.32 9.5-9.64 9.5a9.44 9.44 0 0 1-9.64-9.5c0-5.5 4.33-9.5 9.64-9.5 5.32 0 9.64 4 9.64 9.5Zm-4.22 0c0-3.42-2.5-5.76-5.42-5.76-2.9 0-5.42 2.34-5.42 5.76 0 3.38 2.51 5.75 5.42 5.75s5.42-2.37 5.42-5.75ZM70.8 20c0 5.46-4.32 9.5-9.64 9.5a9.44 9.44 0 0 1-9.64-9.5c0-5.5 4.33-9.5 9.64-9.5 5.32 0 9.65 4 9.65 9.5Zm-4.21 0c0-3.42-2.51-5.76-5.43-5.76-2.9 0-5.42 2.34-5.42 5.76 0 3.38 2.51 5.75 5.42 5.75 2.92 0 5.43-2.37 5.43-5.75ZM90.74 11.08v17.04c0 7.02-4.19 9.88-9.13 9.88a9.15 9.15 0 0 1-8.52-5.6l3.67-1.5a5.3 5.3 0 0 0 4.84 3.36c3.17 0 5.13-1.93 5.13-5.56v-1.37h-.15a6.58 6.58 0 0 1-5.06 2.16c-4.8 0-9.2-4.14-9.2-9.46 0-5.36 4.4-9.53 9.2-9.53 2.3 0 4.12 1 5.06 2.13h.15v-1.55h4.01Zm-3.7 8.95c0-3.34-2.27-5.79-5.14-5.79-2.91 0-5.35 2.45-5.35 5.8 0 3.3 2.44 5.71 5.35 5.71 2.87 0 5.13-2.4 5.13-5.72ZM97.35 1.08v27.83h-4.12V1.08zM113.4 23.12l3.27 2.16a9.6 9.6 0 0 1-8.01 4.2A9.35 9.35 0 0 1 99.12 20c0-5.64 4.11-9.5 9.07-9.5 4.99 0 7.42 3.93 8.22 6.05l.44 1.08L104 22.87a4.9 4.9 0 0 0 4.66 2.88 5.5 5.5 0 0 0 4.73-2.63Zm-10.1-3.41 8.6-3.53c-.48-1.18-1.9-2-3.57-2a5.24 5.24 0 0 0-5.02 5.53ZM15.14 17.53V13.5h13.74c.13.7.2 1.53.2 2.43 0 3.02-.83 6.76-3.53 9.42-2.62 2.7-5.97 4.14-10.4 4.14C6.91 29.49 0 22.87 0 14.74 0 6.62 6.92 0 15.14 0c4.55 0 7.8 1.76 10.23 4.06l-2.88 2.85a10.46 10.46 0 0 0-7.35-2.88c-6 0-10.7 4.78-10.7 10.71 0 5.94 4.7 10.72 10.7 10.72 3.9 0 6.11-1.55 7.53-2.95 1.16-1.14 1.91-2.77 2.21-4.99h-9.74Z"></path></g></svg>