<svg xmlns="http://www.w3.org/2000/svg" width="133" height="29" viewBox="0 0 133 29"><path d="M7.66 29c8.2 0 13.16-3.31 13.16-10.34V.63H5.42v4.6h9.65V18.5c0 3.35-2.99 5.48-8.67 5.48C4.31 24 2.16 23.7 0 23v4.86c2.09.7 4.71 1.14 7.66 1.14Zm33.11-.11c9.78 0 16-5.7 16-14.46C56.77 5.7 50.55 0 40.77 0c-9.78 0-16 5.7-16 14.43 0 8.76 6.22 14.46 16 14.46Zm0-4.86c-6.22 0-10.24-3.75-10.24-9.6 0-5.86 4.02-9.65 10.24-9.65 6.22 0 10.25 3.8 10.25 9.65 0 5.85-4.03 9.6-10.25 9.6Zm42.8 4.2v-4.79h-16.9V.63H60.9v27.6h22.65Zm9.7 0V.63h-5.75v27.6h5.75Zm29.6 0v-4.79h-18.81v-6.92h16.57V11.9h-16.57V5.4h18.51V.63H98.3v27.6h24.56Zm10.13 0v-5.9h-6.11v5.9H133Z" fill="#242627" fill-rule="nonzero"></path></svg>