<svg xmlns="http://www.w3.org/2000/svg" width="152" height="36" viewBox="0 0 152 36"><g fill="none" fill-rule="evenodd"><path d="M0 10.46 7.46 3h9.7c-1.03.5-1.98 1.16-2.82 2L2.1 17.24a9.24 9.24 0 0 1-2.1-5.9v-.88ZM8.28 33h-.82L0 25.54v-9.7c.5 1.03 1.16 1.98 2 2.82L14.24 30.9a9.24 9.24 0 0 1-5.9 2.1h-.06ZM30 25.54 22.54 33h-9.7c1.03-.5 1.98-1.16 2.82-2L27.9 18.76a9.24 9.24 0 0 1 2.1 5.9v.88Zm-2-8.2L15.76 5.1a9.24 9.24 0 0 1 5.9-2.1h.88L30 10.46v9.7a10.34 10.34 0 0 0-2-2.82Z" fill="#DEE0FF"></path><g fill="#FFF" fill-rule="nonzero"><path d="M39.42 12.8V10h13.15v2.8h-4.9V26h-3.34V12.8zM59.43 26.24c-1.23 0-2.3-.25-3.19-.76a5.04 5.04 0 0 1-2.06-2.14 7.12 7.12 0 0 1-.71-3.3c0-1.22.24-2.3.71-3.24a5.3 5.3 0 0 1 2.02-2.18c.87-.52 1.9-.78 3.07-.78.8 0 1.54.13 2.22.38a5.05 5.05 0 0 1 3.01 3.04c.29.76.43 1.66.43 2.68v.9H54.8V18.8h8.53l-1.55.54c0-.61-.09-1.14-.28-1.6-.18-.44-.46-.8-.83-1.04a2.4 2.4 0 0 0-1.37-.37c-.54 0-1 .13-1.38.38-.37.25-.66.59-.86 1.02-.2.43-.3.92-.3 1.48v1.45c0 .65.11 1.2.34 1.67a2.5 2.5 0 0 0 2.38 1.43c.38 0 .71-.05 1.01-.16.3-.1.56-.26.78-.47.22-.2.38-.46.5-.75l3.06.2a4.15 4.15 0 0 1-.94 1.93c-.47.55-1.09.98-1.84 1.28-.75.3-1.62.46-2.6.46ZM71.75 26.24a6.05 6.05 0 0 1-3.16-.8 5.28 5.28 0 0 1-2.03-2.17 7 7 0 0 1-.7-3.22c0-1.23.23-2.31.71-3.25a5.27 5.27 0 0 1 2.04-2.18 6.06 6.06 0 0 1 3.14-.78c1.05 0 1.96.19 2.75.57.78.38 1.4.91 1.86 1.6.46.69.71 1.5.75 2.43h-3.13a2.7 2.7 0 0 0-.37-1.06c-.18-.3-.43-.53-.74-.7-.3-.16-.67-.24-1.07-.24-.52 0-.97.14-1.35.41-.39.28-.68.68-.9 1.22a5.27 5.27 0 0 0-.31 1.94c0 .75.1 1.4.32 1.95.2.55.5.96.89 1.25.38.28.83.43 1.35.43.57 0 1.05-.18 1.45-.55.39-.36.63-.86.73-1.5h3.13c-.05.92-.3 1.73-.74 2.43a4.52 4.52 0 0 1-1.83 1.63c-.79.4-1.71.59-2.79.59ZM81.87 19.06V26h-3.32V13.99h3.27v2.14h.12c.27-.71.7-1.27 1.3-1.68.6-.4 1.34-.61 2.23-.61.83 0 1.56.18 2.18.55.62.36 1.1.88 1.44 1.56.34.67.52 1.47.52 2.41V26h-3.32v-7.05c0-.73-.2-1.3-.57-1.72a2 2 0 0 0-1.57-.63c-.44 0-.84.1-1.18.3-.35.2-.61.47-.8.84-.2.36-.3.8-.3 1.32ZM96.96 26.24a6.1 6.1 0 0 1-3.14-.78 5.23 5.23 0 0 1-2.04-2.17 7 7 0 0 1-.71-3.24c0-1.25.24-2.33.71-3.26a5.23 5.23 0 0 1 2.04-2.17 6.1 6.1 0 0 1 3.14-.78c1.22 0 2.27.26 3.16.78a5.23 5.23 0 0 1 2.04 2.17c.47.93.71 2.01.71 3.26a7 7 0 0 1-.71 3.24 5.23 5.23 0 0 1-2.04 2.17c-.89.52-1.94.78-3.16.78Zm.03-2.6c.55 0 1.01-.16 1.38-.47.37-.31.66-.74.85-1.28.19-.55.28-1.17.28-1.86 0-.7-.1-1.32-.28-1.86a2.82 2.82 0 0 0-.85-1.27 2.1 2.1 0 0 0-1.38-.46c-.56 0-1.03.15-1.4.46-.38.3-.66.73-.85 1.27a5.57 5.57 0 0 0-.29 1.86c0 .7.1 1.31.29 1.86.19.54.47.97.84 1.28.38.31.85.47 1.4.47ZM107.67 10v16h-3.32V10zM115.02 26.24a6.1 6.1 0 0 1-3.14-.78 5.23 5.23 0 0 1-2.04-2.17 7 7 0 0 1-.72-3.24c0-1.25.24-2.33.72-3.26a5.23 5.23 0 0 1 2.04-2.17 6.1 6.1 0 0 1 3.14-.78c1.22 0 2.27.26 3.16.78a5.23 5.23 0 0 1 2.04 2.17c.47.93.71 2.01.71 3.26a7 7 0 0 1-.71 3.24 5.23 5.23 0 0 1-2.04 2.17c-.89.52-1.94.78-3.16.78Zm.02-2.6c.56 0 1.02-.16 1.39-.47.37-.31.65-.74.84-1.28.2-.55.29-1.17.29-1.86 0-.7-.1-1.32-.29-1.86a2.82 2.82 0 0 0-.84-1.27 2.1 2.1 0 0 0-1.39-.46c-.55 0-1.02.15-1.4.46-.37.3-.66.73-.85 1.27a5.57 5.57 0 0 0-.28 1.86c0 .7.1 1.31.28 1.86.2.54.48.97.85 1.28.38.31.85.47 1.4.47ZM127.77 30.75a6.55 6.55 0 0 1-3.8-.96 3.85 3.85 0 0 1-1.68-2.4l3.08-.4a2 2 0 0 0 1.24 1.17c.34.13.75.2 1.24.2.72 0 1.32-.18 1.8-.53.47-.35.7-.93.7-1.75v-2.2h-.14a3.17 3.17 0 0 1-1.78 1.67c-.46.19-1 .28-1.64.28a4.48 4.48 0 0 1-4.22-2.56 7.23 7.23 0 0 1-.66-3.29c0-1.36.22-2.5.67-3.41a4.54 4.54 0 0 1 5.9-2.39c.45.22.82.5 1.1.84.3.34.51.67.65 1h.13V14h3.28v12.14c0 1.02-.25 1.87-.75 2.56-.5.68-1.2 1.2-2.08 1.54-.88.35-1.9.52-3.04.52Zm.07-7.42c.8 0 1.42-.3 1.86-.9.44-.6.66-1.41.66-2.47 0-.7-.1-1.3-.3-1.83-.19-.52-.47-.92-.85-1.21a2.17 2.17 0 0 0-1.37-.44c-.55 0-1 .15-1.38.45-.38.3-.66.7-.86 1.23-.19.52-.29 1.12-.29 1.8a5 5 0 0 0 .3 1.8c.19.5.47.88.85 1.16.37.27.83.4 1.38.4ZM135.6 26V13.99h3.31V26h-3.32Zm1.65-13.55c-.5 0-.92-.16-1.27-.49a1.58 1.58 0 0 1-.53-1.2c0-.46.18-.85.53-1.18a1.8 1.8 0 0 1 1.27-.49c.5 0 .93.16 1.28.5.35.32.52.71.52 1.18 0 .46-.17.86-.52 1.19-.35.33-.78.5-1.28.5ZM144.28 26.23a5 5 0 0 1-2.04-.4 3.2 3.2 0 0 1-1.43-1.2 3.56 3.56 0 0 1-.51-1.98 3.01 3.01 0 0 1 1.36-2.77c.43-.28.9-.5 1.44-.64.54-.14 1.1-.24 1.71-.3.7-.06 1.25-.13 1.68-.2.42-.06.73-.15.93-.29.2-.13.3-.32.3-.57v-.05c0-.5-.16-.88-.48-1.15-.3-.28-.75-.41-1.31-.41-.6 0-1.07.13-1.43.39-.35.26-.58.6-.7 1l-3.08-.25a4.22 4.22 0 0 1 2.7-3.14 7.6 7.6 0 0 1 4.44-.2c.61.16 1.15.4 1.63.73a3.56 3.56 0 0 1 1.55 3.1V26h-3.17v-1.68h-.08a3.31 3.31 0 0 1-1.94 1.66c-.45.17-.97.25-1.57.25Zm.96-2.3c.49 0 .92-.1 1.3-.3.37-.2.66-.46.88-.8.2-.33.31-.7.31-1.12v-1.27c-.1.06-.24.12-.42.18s-.39.1-.6.15a14.36 14.36 0 0 1-1.28.2c-.39.06-.73.15-1.03.28-.3.12-.52.29-.68.5-.16.21-.24.48-.24.8 0 .44.16.79.5 1.02.32.24.74.36 1.26.36Z"></path></g></g></svg>