<svg xmlns="http://www.w3.org/2000/svg" width="158" height="113" viewBox="0 0 158 113" fill="none"><g clip-path="url(#clip0_1043_2416)"><mask id="mask0_1043_2416" style="mask-type:luminance" maskUnits="userSpaceOnUse" x="0" y="0" width="158" height="113"><path d="M158 0H0V113H158V0Z" fill="#242627"></path></mask><g mask="url(#mask0_1043_2416)"><path d="M74 13.5L69.5 18L65 13.5L69.5 9L74 13.5ZM84 5L79 10L74 5L79 0L84 5ZM93 13.5L88.5 18L84 13.5L88.5 9L93 13.5ZM79 28L75 24L79 20L83 24L79 28ZM79.5 46L76 42.5L79.5 39L83 42.5L79.5 46ZM78.5 65L76 62.5009L78.5 60L81 62.5009L78.5 65ZM79 83L77 81L79 79L81 81L79 83ZM69.5 37L66 33.501L69.5 30L73 33.501L69.5 37ZM69.5 55L67 52.5L69.5 50L72 52.5L69.5 55ZM69 74L67 72L69 70L71 72L69 74ZM69 93L67 91L69 89L71 91L69 93ZM60 28L56 24L60 20L64 24L60 28ZM59.5 46L56 42.5L59.5 39L63 42.5L59.5 46ZM59.5 65L57 62.5009L59.5 60L62 62.5009L59.5 65ZM60 83L58 81L60 79L62 81L60 83ZM59.5 102L58 100.5L59.5 99L61 100.5L59.5 102ZM50.5 37L47 33.501L50.5 30L54 33.501L50.5 37ZM50.5 55L48 52.5L50.5 50L53 52.5L50.5 55ZM50 74L48 72L50 70L52 72L50 74ZM50 93L48 91L50 89L52 91L50 93ZM50.5 112L49 110.501L50.5 109L52 110.501L50.5 112ZM40.5 46L37 42.5L40.5 39L44 42.5L40.5 46ZM40.5 65L38 62.5009L40.5 60L43 62.5009L40.5 65ZM40 83L38 81L40 79L42 81L40 83ZM40.5 102L39 100.5L40.5 99L42 100.5L40.5 102ZM40.5 121L39 119.5L40.5 118L42 119.5L40.5 121ZM31.5 55L29 52.5L31.5 50L34 52.5L31.5 55ZM31 74L29 72L31 70L33 72L31 74ZM31 93L29 91L31 89L33 91L31 93ZM31.5 112L30 110.501L31.5 109L33 110.501L31.5 112ZM31 130L30 129.001L31 128L32 129.001L31 130ZM21.5 65L19 62.5009L21.5 60L24 62.5009L21.5 65ZM21 83L19 81L21 79L23 81L21 83ZM21.5 102L20 100.5L21.5 99L23 100.5L21.5 102ZM21.5 121L20 119.5L21.5 118L23 119.5L21.5 121ZM21 140L20 139L21 138L22 139L21 140ZM11 74L9 72L11 70L13 72L11 74ZM12 93L10 91L12 89L14 91L12 93ZM11.5 112L10 110.501L11.5 109L13 110.501L11.5 112ZM11 130L10 129.001L11 128L12 129.001L11 130ZM11 150L10 149L11 148L12 149L11 150ZM2 83L0 81L2 79L4 81L2 83ZM2.5 102L1 100.5L2.5 99L4 100.5L2.5 102ZM1.5 121L0 119.5L1.5 118L3 119.5L1.5 121ZM2 140L1 139L2 138L3 139L2 140ZM1.99989 160L1 159L1.99989 158L3 159L1.99989 160ZM88.5 37L85 33.501L88.5 30L92 33.501L88.5 37ZM88.5 55L86 52.5L88.5 50L91 52.5L88.5 55ZM89 74L87 72L89 70L91 72L89 74ZM89 93L87 91L89 89L91 91L89 93ZM98 28L94 24L98 20L102 24L98 28ZM98.5 46L95 42.5L98.5 39L102 42.5L98.5 46ZM98.5 65L96 62.5009L98.5 60L101 62.5009L98.5 65ZM98 83L96 81L98 79L100 81L98 83ZM98.5 102L97 100.5L98.5 99L100 100.5L98.5 102ZM107.5 37L104 33.501L107.5 30L111 33.501L107.5 37ZM107.5 55L105 52.5L107.5 50L110 52.5L107.5 55ZM108 74L106 72L108 70L110 72L108 74ZM108 93L106 91L108 89L110 91L108 93ZM107.5 112L106 110.501L107.5 109L109 110.501L107.5 112ZM117.5 46L114 42.5L117.5 39L121 42.5L117.5 46ZM117.5 65L115 62.5009L117.5 60L120 62.5009L117.5 65ZM118 83L116 81L118 79L120 81L118 83ZM117.5 102L116 100.5L117.5 99L119 100.5L117.5 102ZM117.5 121L116 119.5L117.5 118L119 119.5L117.5 121ZM126.5 55L124 52.5L126.5 50L129 52.5L126.5 55ZM127 74L125 72L127 70L129 72L127 74ZM127 93L125 91L127 89L129 91L127 93ZM126.5 112L125 110.501L126.5 109L128 110.501L126.5 112ZM127 130L126 129.001L127 128L128 129.001L127 130ZM136.5 65L134 62.5009L136.5 60L139 62.5009L136.5 65ZM137 83L135 81L137 79L139 81L137 83ZM136.5 102L135 100.5L136.5 99L138 100.5L136.5 102ZM136.5 121L135 119.5L136.5 118L138 119.5L136.5 121ZM137 140L136 139L137 138L138 139L137 140ZM147 74L145 72L147 70L149 72L147 74ZM146 93L144 91L146 89L148 91L146 93ZM146.5 112L145 110.501L146.5 109L148 110.501L146.5 112ZM147 130L146 129.001L147 128L148 129.001L147 130ZM147 150L146 149L147 148L148 149L147 150ZM156 83L154 81L156 79L158 81L156 83ZM155.5 102L154 100.5L155.5 99L157 100.5L155.5 102ZM156.5 121L155 119.5L156.5 118L158 119.5L156.5 121ZM156 140L155 139L156 138L157 139L156 140ZM156 160L155 159L156 158L157 159L156 160Z" fill="#242627"></path></g><g clip-path="url(#clip1_1043_2416)"><path d="M74 14.5L69.5 19L65 14.5L69.5 10L74 14.5ZM84 6L79 11L74 6L79 1L84 6ZM93 14.5L88.5 19L84 14.5L88.5 10L93 14.5ZM79 29L75 25L79 21L83 25L79 29ZM79.5 47L76 43.5L79.5 40L83 43.5L79.5 47ZM78.5 66L76 63.5009L78.5 61L81 63.5009L78.5 66ZM79 84L77 82L79 80L81 82L79 84ZM69.5 38L66 34.501L69.5 31L73 34.501L69.5 38ZM69.5 56L67 53.5L69.5 51L72 53.5L69.5 56ZM69 75L67 73L69 71L71 73L69 75ZM69 94L67 92L69 90L71 92L69 94ZM60 29L56 25L60 21L64 25L60 29ZM59.5 47L56 43.5L59.5 40L63 43.5L59.5 47ZM59.5 66L57 63.5009L59.5 61L62 63.5009L59.5 66ZM60 84L58 82L60 80L62 82L60 84ZM59.5 103L58 101.5L59.5 100L61 101.5L59.5 103ZM50.5 38L47 34.501L50.5 31L54 34.501L50.5 38ZM50.5 56L48 53.5L50.5 51L53 53.5L50.5 56ZM50 75L48 73L50 71L52 73L50 75ZM50 94L48 92L50 90L52 92L50 94ZM50.5 113L49 111.501L50.5 110L52 111.501L50.5 113ZM40.5 47L37 43.5L40.5 40L44 43.5L40.5 47ZM40.5 66L38 63.5009L40.5 61L43 63.5009L40.5 66ZM40 84L38 82L40 80L42 82L40 84ZM40.5 103L39 101.5L40.5 100L42 101.5L40.5 103ZM40.5 122L39 120.5L40.5 119L42 120.5L40.5 122ZM31.5 56L29 53.5L31.5 51L34 53.5L31.5 56ZM31 75L29 73L31 71L33 73L31 75ZM31 94L29 92L31 90L33 92L31 94ZM31.5 113L30 111.501L31.5 110L33 111.501L31.5 113ZM31 131L30 130.001L31 129L32 130.001L31 131ZM21.5 66L19 63.5009L21.5 61L24 63.5009L21.5 66ZM21 84L19 82L21 80L23 82L21 84ZM21.5 103L20 101.5L21.5 100L23 101.5L21.5 103ZM21.5 122L20 120.5L21.5 119L23 120.5L21.5 122ZM21 141L20 140L21 139L22 140L21 141ZM11 75L9 73L11 71L13 73L11 75ZM12 94L10 92L12 90L14 92L12 94ZM11.5 113L10 111.501L11.5 110L13 111.501L11.5 113ZM11 131L10 130.001L11 129L12 130.001L11 131ZM11 151L10 150L11 149L12 150L11 151ZM2 84L0 82L2 80L4 82L2 84ZM2.5 103L1 101.5L2.5 100L4 101.5L2.5 103ZM1.5 122L0 120.5L1.5 119L3 120.5L1.5 122ZM2 141L1 140L2 139L3 140L2 141ZM1.99989 161L1 160L1.99989 159L3 160L1.99989 161ZM88.5 38L85 34.501L88.5 31L92 34.501L88.5 38ZM88.5 56L86 53.5L88.5 51L91 53.5L88.5 56ZM89 75L87 73L89 71L91 73L89 75ZM89 94L87 92L89 90L91 92L89 94ZM98 29L94 25L98 21L102 25L98 29ZM98.5 47L95 43.5L98.5 40L102 43.5L98.5 47ZM98.5 66L96 63.5009L98.5 61L101 63.5009L98.5 66ZM98 84L96 82L98 80L100 82L98 84ZM98.5 103L97 101.5L98.5 100L100 101.5L98.5 103ZM107.5 38L104 34.501L107.5 31L111 34.501L107.5 38ZM107.5 56L105 53.5L107.5 51L110 53.5L107.5 56ZM108 75L106 73L108 71L110 73L108 75ZM108 94L106 92L108 90L110 92L108 94ZM107.5 113L106 111.501L107.5 110L109 111.501L107.5 113ZM117.5 47L114 43.5L117.5 40L121 43.5L117.5 47ZM117.5 66L115 63.5009L117.5 61L120 63.5009L117.5 66ZM118 84L116 82L118 80L120 82L118 84ZM117.5 103L116 101.5L117.5 100L119 101.5L117.5 103ZM117.5 122L116 120.5L117.5 119L119 120.5L117.5 122ZM126.5 56L124 53.5L126.5 51L129 53.5L126.5 56ZM127 75L125 73L127 71L129 73L127 75ZM127 94L125 92L127 90L129 92L127 94ZM126.5 113L125 111.501L126.5 110L128 111.501L126.5 113ZM127 131L126 130.001L127 129L128 130.001L127 131ZM136.5 66L134 63.5009L136.5 61L139 63.5009L136.5 66ZM137 84L135 82L137 80L139 82L137 84ZM136.5 103L135 101.5L136.5 100L138 101.5L136.5 103ZM136.5 122L135 120.5L136.5 119L138 120.5L136.5 122ZM137 141L136 140L137 139L138 140L137 141ZM147 75L145 73L147 71L149 73L147 75ZM146 94L144 92L146 90L148 92L146 94ZM146.5 113L145 111.501L146.5 110L148 111.501L146.5 113ZM147 131L146 130.001L147 129L148 130.001L147 131ZM147 151L146 150L147 149L148 150L147 151ZM156 84L154 82L156 80L158 82L156 84ZM155.5 103L154 101.5L155.5 100L157 101.5L155.5 103ZM156.5 122L155 120.5L156.5 119L158 120.5L156.5 122ZM156 141L155 140L156 139L157 140L156 141ZM156 161L155 160L156 159L157 160L156 161Z" fill="#242627"></path></g></g><defs><clipPath id="clip0_1043_2416"><rect width="158" height="113" fill="white"></rect></clipPath><clipPath id="clip1_1043_2416"><rect width="158" height="112" fill="white" transform="translate(0 1)"></rect></clipPath></defs></svg>