<svg xmlns="http://www.w3.org/2000/svg" xmlns:xlink="http://www.w3.org/1999/xlink" width="74" height="71" viewBox="0 0 74 71"><defs><path id="a" d="M26.96.46 73 11v38.8L26.96 38.05z"></path></defs><g fill="none" fill-rule="evenodd"><g transform="translate(.56 .12)"><use fill="#DEE0FF" xlink:href="#a"></use><use fill="#010ED0" xlink:href="#a"></use></g><path fill="#DEE0FF" d="m1.72 41.4 19.66 4.75v16.5L1.52 57.76z"></path><path d="M72.34 11.31 28.07 1.37v1.58a.57.57 0 0 1-1.13 0V1.78L2.14 20.25l44.72 11.1 25.48-20.04ZM34.45 36.24c.05.08.07.17.07.26v17.63c0 .05 0 .1-.02.15l-.02.08a.7.7 0 0 1-.23.3l-11.14 8.41 23.27 5.77v-25.2l-.13-.01-2.23-.56h-.01a.57.57 0 0 1 .29-1.1l2.08.53V32.4L1.73 21.31v18.2l11-8.5c.08-.05.17-.1.27-.11.1-.02.18-.02.28 0L34 35.87c.13.03.24.1.33.2.05.04.1.1.12.17ZM1.17 58.79c-.32-.09-.48-.27-.51-.46a.56.56 0 0 1-.07-.26v-.02a.54.54 0 0 1-.03-.18v-17.1c0-.09.01-.16.03-.23V20.47a.77.77 0 0 1 .05-.35.82.82 0 0 1 .27-.35L27.07.28a.8.8 0 0 1 .66-.13l45.54 10.22a.79.79 0 0 1 .57.49c.03.07.05.15.05.24v38.87a.77.77 0 0 1-.32.5l-26.15 19.5a.81.81 0 0 1-.67.13L1.2 58.8h-.03Zm.56-1.03.06.03 19.6 4.86V46.44l-7.68-1.91v.82a.57.57 0 0 1-1.13 0v-1.1l-10.85-2.7v16.21Zm20.8 4.34 10.17-7.7-.1-.02a.57.57 0 0 1 .29-1.1l.5.13V37.75L22.52 46.3v4.4h.1l2.06.52a.57.57 0 0 1-.28 1.1l-1.88-.48V62.1ZM4.03 54.98a.57.57 0 1 0 .68.9l1.56-1.16a.57.57 0 1 0-.68-.9l-1.56 1.16Zm3.9-2.91a.57.57 0 1 0 .68.9l1.56-1.17a.57.57 0 1 0-.67-.9l-1.56 1.17Zm3.91-2.92a.57.57 0 1 0 .68.9l.73-.54.89.22a.57.57 0 0 0 .28-1.1h-.01l-.8-.2a.57.57 0 0 0-1 .15c-.26.18-.52.38-.77.57Zm5.65.26a.57.57 0 0 0-.29 1.1h.01l2.06.52a.57.57 0 0 0 .28-1.1h-.01l-2.05-.52ZM27.76 52a.57.57 0 0 0-.29 1.1h.01l2.06.52a.57.57 0 0 0 .28-1.1l-2.06-.52Zm5.05-15.23-19.13-4.6v1.87a.57.57 0 0 1-1.13 0v-1.45L2.29 40.53l10.29 2.55c0-.25.16-.46.4-.53.36-.11.73.16.73.54v.28l8.14 2.02 10.96-8.63ZM12.57 39.7a.57.57 0 0 0 1.13 0v-2.27a.57.57 0 0 0-1.14 0v2.27Zm26.16.87a.57.57 0 0 0-.29 1.1h.02l2.22.56a.57.57 0 0 0 .29-1.1h-.01l-2.23-.56Zm11.13 2.8a.57.57 0 0 0-.28 1.1l2.23.56a.57.57 0 0 0 .29-1.1h-.01l-2.23-.56Zm5.57 1.4a.57.57 0 0 0-.29 1.1h.01l2.23.56a.57.57 0 0 0 .28-1.1l-2.23-.56Zm5.56 1.4a.57.57 0 0 0-.28 1.1l2.23.56a.57.57 0 0 0 .29-1.1h-.01l-2.23-.56Zm5.57 1.4a.57.57 0 0 0-.29 1.1h.01l2.23.56a.57.57 0 0 0 .29-1.1h-.02l-2.22-.56ZM47.5 68.48 72.76 49.6V12.42L47.51 32.3v36.2Zm-20.5-36.8a.57.57 0 0 0 1.14 0v-2.26a.57.57 0 0 0-1.14 0v2.26Zm0-6.63a.57.57 0 0 0 1.13 0v-2.26a.57.57 0 0 0-1.14 0v2.26Zm-.05-5.3a.57.57 0 0 0 1.13 0V17.5a.57.57 0 0 0-1.14 0l.01 2.26Zm.01-5.48a.57.57 0 0 0 1.14 0V12a.57.57 0 0 0-1.14 0v2.26Zm-.01-5.66a.57.57 0 0 0 1.13 0V6.35a.57.57 0 0 0-1.14 0l.01 2.26Z" fill="#000"></path></g></svg>