<svg xmlns="http://www.w3.org/2000/svg" width="164" height="35" viewBox="0 0 164 35"><path d="M11.25 35c2.52 0 4.77-.36 6.66-1.07A9.43 9.43 0 0 0 22.14 31a6.62 6.62 0 0 0 1.44-4.26c0-1.87-.54-3.38-1.53-4.44a8.15 8.15 0 0 0-3.5-2.22c-1.36-.45-3.16-.8-5.23-1.16a25.5 25.5 0 0 1-4.14-.89c-.8-.26-1.35-.89-1.35-1.68 0-.72.36-1.25 1.26-1.7a7.94 7.94 0 0 1 3.7-.7c2.7 0 5.21.62 7.55 1.95l2.52-5.33a16.35 16.35 0 0 0-4.5-1.69 28.9 28.9 0 0 0-5.49-.62c-2.52 0-4.68.36-6.48 1.07a10.9 10.9 0 0 0-4.41 3.1A6.86 6.86 0 0 0 .54 16.8c0 1.95.54 3.46 1.53 4.53a8.44 8.44 0 0 0 3.6 2.22c1.35.44 3.15.8 5.31 1.07 1.8.26 3.15.53 4.05.8.9.35 1.35.88 1.35 1.6 0 1.6-1.62 2.3-4.77 2.3-1.62 0-3.24-.26-4.86-.7a16.75 16.75 0 0 1-4.23-1.78L0 32.16c1.26.8 2.88 1.42 4.95 1.95 2.07.53 4.14.89 6.3.89Zm29.16 0c2.8 0 5.14-.53 7.2-1.69a10.14 10.14 0 0 0 4.5-4.8l-5.84-3.2c-1.35 2.4-3.33 3.56-5.86 3.56a6.7 6.7 0 0 1-4.95-1.95c-1.35-1.34-1.98-3.02-1.98-5.24 0-2.23.63-3.91 1.98-5.25a6.9 6.9 0 0 1 4.95-1.95c2.53 0 4.5 1.15 5.86 3.55l5.85-3.1a9.94 9.94 0 0 0-4.5-4.9 14.6 14.6 0 0 0-7.2-1.68c-2.8 0-5.32.53-7.48 1.69a13.99 13.99 0 0 0-5.22 4.7 12.41 12.41 0 0 0-1.89 6.85c0 2.57.63 4.88 1.9 6.84a13.34 13.34 0 0 0 5.21 4.7A16.02 16.02 0 0 0 40.41 35Zm26.74 0a10.7 10.7 0 0 0 8.1-3.46v3.1h7.2V8.8h-7.56v12.8c0 2.3-.54 4-1.62 5.24a5.73 5.73 0 0 1-4.41 1.77c-3.51 0-5.31-2.04-5.31-6.21V8.79h-7.56v14.57c0 3.82.99 6.75 2.97 8.7 1.98 1.96 4.68 2.94 8.19 2.94Zm34.3 0c2.78 0 5.21-.53 7.37-1.69a13.72 13.72 0 0 0 5.13-4.7 12.62 12.62 0 0 0 1.9-6.85c0-2.57-.64-4.88-1.9-6.84a13.72 13.72 0 0 0-5.13-4.7 15.31 15.31 0 0 0-7.38-1.7c-2.79 0-5.22.54-7.38 1.7a13.72 13.72 0 0 0-5.13 4.7 12.41 12.41 0 0 0-1.89 6.84c0 2.58.63 4.89 1.9 6.84a13.03 13.03 0 0 0 5.12 4.71 15.56 15.56 0 0 0 7.38 1.69Zm0-6.13a6.16 6.16 0 0 1-4.78-1.95c-1.26-1.34-1.89-3.02-1.89-5.24 0-2.23.63-3.91 1.9-5.25a6.3 6.3 0 0 1 4.76-1.95 6.3 6.3 0 0 1 4.77 1.95c1.26 1.34 1.9 3.02 1.9 5.25 0 2.22-.64 3.9-1.9 5.24a6.16 6.16 0 0 1-4.77 1.95ZM148.87 35c3.87 0 6.57-1.15 8-3.55v3.2H164V19.9c0-3.82-1.08-6.75-3.24-8.62-2.16-1.86-5.31-2.84-9.36-2.84-2.07 0-4.14.27-6.12.8a16.93 16.93 0 0 0-5.13 2.3l2.7 5.25a11.2 11.2 0 0 1 3.42-1.78 13 13 0 0 1 4.14-.62c1.98 0 3.5.45 4.5 1.33a4.78 4.78 0 0 1 1.53 3.73h-6.03c-3.78 0-6.66.71-8.46 2.05a6.8 6.8 0 0 0-2.8 5.68c0 1.51.37 2.85 1.18 4a7.57 7.57 0 0 0 3.42 2.75c1.53.63 3.15 1.07 5.13 1.07Zm1.89-4.97a5.5 5.5 0 0 1-3.15-.8 2.8 2.8 0 0 1-1.17-2.31c0-2.05 1.53-3.02 4.68-3.02h5.22v2.66a4.78 4.78 0 0 1-2.16 2.58c-1 .53-2.16.89-3.42.89ZM124.94 0h8.1l-7.2 27.54h9.9v7.1h-18v-7.1L124.93 0Z" fill="#242627" fill-rule="evenodd"></path></svg>