<svg xmlns="http://www.w3.org/2000/svg" width="290" height="240" viewBox="0 0 290 240"><path d="m145 18-9-9 9-9 9 9-9 9m0 33-7-7 7-7 7 7-7 7m0 34-6-6 6-6 6 6-6 6m-.5 34-4.5-4.5 4.5-4.5 4.5 4.5-4.5 4.5m.5 35-4-4 4-4 4 4-4 4M127 34l-8-8 8-8 8 8-8 8m.5 34-6.5-6.5 6.5-6.5 6.5 6.5-6.5 6.5m-.5 34-5-5 5-5 5 5-5 5m0 34-4-4 4-4 4 4-4 4m.5 35-3.5-3.5 3.5-3.5 3.5 3.5-3.5 3.5M110 51l-7-7 7-7 7 7-7 7m0 34-6-6 6-6 6 6-6 6m-.5 34-4.5-4.5 4.5-4.5 4.5 4.5-4.5 4.5m.5 35-4-4 4-4 4 4-4 4m0 34-3-3 3-3 3 3-3 3M92.5 68 86 61.5l6.5-6.5 6.5 6.5-6.5 6.5m-.5 34-5-5 5-5 5 5-5 5m0 34-4-4 4-4 4 4-4 4m.5 35-3.5-3.5 3.5-3.5 3.5 3.5-3.5 3.5m-.5 35-3-3 3-3 3 3-3 3M74 85l-6-6 6-6 6 6-6 6m.5 34-4.5-4.5 4.5-4.5 4.5 4.5-4.5 4.5m-.5 35-4-4 4-4 4 4-4 4m0 34-3-3 3-3 3 3-3 3m.5 35-2.5-2.5 2.5-2.5 2.5 2.5-2.5 2.5M57 102l-5-5 5-5 5 5-5 5m0 34-4-4 4-4 4 4-4 4m-.5 35-3.5-3.5 3.5-3.5 3.5 3.5-3.5 3.5m.5 35-3-3 3-3 3 3-3 3m0 34-2-2 2-2 2 2-2 2M39.5 119l-4.5-4.5 4.5-4.5 4.5 4.5-4.5 4.5m-.5 35-4-4 4-4 4 4-4 4m0 34-3-3 3-3 3 3-3 3m.5 35-2.5-2.5 2.5-2.5 2.5 2.5-2.5 2.5m-.5 35-2-2 2-2 2 2-2 2M21 136l-4-4 4-4 4 4-4 4m.5 35-3.5-3.5 3.5-3.5 3.5 3.5-3.5 3.5m-.5 35-3-3 3-3 3 3-3 3m0 34-2-2 2-2 2 2-2 2m0 36-2-2 2-2 2 2-2 2M4 154l-4-4 4-4 4 4-4 4m0 34-3-3 3-3 3 3-3 3m-.5 35L1 220.5l2.5-2.5 2.5 2.5-2.5 2.5m.5 35-2-2 2-2 2 2-2 2m-.5 35L2 291.5l1.5-1.5 1.5 1.5-1.5 1.5M163 34l-8-8 8-8 8 8-8 8m-.5 34-6.5-6.5 6.5-6.5 6.5 6.5-6.5 6.5m.5 34-5-5 5-5 5 5-5 5m0 34-4-4 4-4 4 4-4 4m-.5 35-3.5-3.5 3.5-3.5 3.5 3.5-3.5 3.5M180 51l-7-7 7-7 7 7-7 7m0 34-6-6 6-6 6 6-6 6m.5 34-4.5-4.5 4.5-4.5 4.5 4.5-4.5 4.5m-.5 35-4-4 4-4 4 4-4 4m0 34-3-3 3-3 3 3-3 3m17.5-120-6.5-6.5 6.5-6.5 6.5 6.5-6.5 6.5m.5 34-5-5 5-5 5 5-5 5m0 34-4-4 4-4 4 4-4 4m-.5 35-3.5-3.5 3.5-3.5 3.5 3.5-3.5 3.5m.5 35-3-3 3-3 3 3-3 3m18-121-6-6 6-6 6 6-6 6m-.5 34-4.5-4.5 4.5-4.5 4.5 4.5-4.5 4.5m.5 35-4-4 4-4 4 4-4 4m0 34-3-3 3-3 3 3-3 3m-.5 35-2.5-2.5 2.5-2.5 2.5 2.5-2.5 2.5M233 102l-5-5 5-5 5 5-5 5m0 34-4-4 4-4 4 4-4 4m.5 35-3.5-3.5 3.5-3.5 3.5 3.5-3.5 3.5m-.5 35-3-3 3-3 3 3-3 3m0 34-2-2 2-2 2 2-2 2m17.5-121-4.5-4.5 4.5-4.5 4.5 4.5-4.5 4.5m.5 35-4-4 4-4 4 4-4 4m0 34-3-3 3-3 3 3-3 3m-.5 35-2.5-2.5 2.5-2.5 2.5 2.5-2.5 2.5m.5 35-2-2 2-2 2 2-2 2m18-122-4-4 4-4 4 4-4 4m-.5 35-3.5-3.5 3.5-3.5 3.5 3.5-3.5 3.5m.5 35-3-3 3-3 3 3-3 3m0 34-2-2 2-2 2 2-2 2m0 36-2-2 2-2 2 2-2 2m17-122-4-4 4-4 4 4-4 4m0 34-3-3 3-3 3 3-3 3m.5 35-2.5-2.5 2.5-2.5 2.5 2.5-2.5 2.5m-.5 35-2-2 2-2 2 2-2 2m.5 35-1.5-1.5 1.5-1.5 1.5 1.5-1.5 1.5" fill="#242627" fill-rule="evenodd"></path></svg>