<svg xmlns="http://www.w3.org/2000/svg" xmlns:xlink="http://www.w3.org/1999/xlink" width="291px" height="294px" viewBox="0 0 291 294"><title>shape-down-purple</title><g id="Page-1" stroke="none" stroke-width="1" fill="none" fill-rule="evenodd"><g id="Case-Studie" transform="translate(-542.000000, -3078.000000)" fill="#DEE0FF"><g id="Group-11" transform="translate(80.000000, 3078.500000)"><path d="M479,146.5 L470,155.5 L461,146.5 L470,137.5 L479,146.5 M512,146.5 L505,153.5 L498,146.5 L505,139.5 L512,146.5 M546,146.5 L540,152.5 L534,146.5 L540,140.5 L546,146.5 M580,147 L575.501694,151.5 L571,147 L575.501694,142.5 L580,147 M615,146.5 L611,150.5 L607,146.5 L611,142.5 L615,146.5 M495,164.5 L487,172.5 L479,164.5 L487,156.5 L495,164.5 M529,164 L522.501783,170.5 L516,164 L522.501783,157.5 L529,164 M563,164.5 L558,169.5 L553,164.5 L558,159.5 L563,164.5 M597,164.5 L593,168.5 L589,164.5 L593,160.5 L597,164.5 M632,164 L628.5,167.5 L625,164 L628.5,160.5 L632,164 M512,181.5 L505,188.5 L498,181.5 L505,174.5 L512,181.5 M546,181.5 L540,187.5 L534,181.5 L540,175.5 L546,181.5 M580,182 L575.501694,186.5 L571,182 L575.501694,177.5 L580,182 M615,181.5 L611,185.5 L607,181.5 L611,177.5 L615,181.5 M649,181.5 L646,184.5 L643,181.5 L646,178.5 L649,181.5 M529,199 L522.501783,205.5 L516,199 L522.501783,192.5 L529,199 M563,199.5 L558,204.5 L553,199.5 L558,194.5 L563,199.5 M597,199.5 L593,203.5 L589,199.5 L593,195.5 L597,199.5 M632,199 L628.5,202.5 L625,199 L628.5,195.5 L632,199 M667,199.5 L664.001912,202.5 L661,199.5 L664.001912,196.5 L667,199.5 M546,217.5 L540,223.5 L534,217.5 L540,211.5 L546,217.5 M580,217 L575.501694,221.5 L571,217 L575.501694,212.5 L580,217 M615,217.5 L611,221.5 L607,217.5 L611,213.5 L615,217.5 M649,217.5 L646,220.5 L643,217.5 L646,214.5 L649,217.5 M684,217 L681.5,219.5 L679,217 L681.5,214.5 L684,217 M563,234.5 L558,239.5 L553,234.5 L558,229.5 L563,234.5 M597,234.5 L593,238.5 L589,234.5 L593,230.5 L597,234.5 M632,235 L628.5,238.5 L625,235 L628.5,231.5 L632,235 M667,234.5 L664.001912,237.5 L661,234.5 L664.001912,231.5 L667,234.5 M701,234.5 L699.001574,236.5 L697,234.5 L699.001574,232.5 L701,234.5 M580,252 L575.501694,256.5 L571,252 L575.501694,247.5 L580,252 M615,252.5 L611,256.5 L607,252.5 L611,248.5 L615,252.5 M649,252.5 L646,255.5 L643,252.5 L646,249.5 L649,252.5 M684,252 L681.5,254.5 L679,252 L681.5,249.5 L684,252 M719,252.5 L717,254.5 L715,252.5 L717,250.5 L719,252.5 M597,270.5 L593,274.5 L589,270.5 L593,266.5 L597,270.5 M632,270 L628.5,273.5 L625,270 L628.5,266.5 L632,270 M667,270.5 L664.001912,273.5 L661,270.5 L664.001912,267.5 L667,270.5 M701,270.5 L699.001574,272.5 L697,270.5 L699.001574,268.5 L701,270.5 M737,270.5 L735,272.5 L733,270.5 L735,268.5 L737,270.5 M615,287.5 L611,291.5 L607,287.5 L611,283.5 L615,287.5 M649,287.5 L646,290.5 L643,287.5 L646,284.5 L649,287.5 M684,288 L681.5,290.5 L679,288 L681.5,285.5 L684,288 M719,287.5 L717,289.5 L715,287.5 L717,285.5 L719,287.5 M754,288.000162 L752.5,289.5 L751,288.000162 L752.5,286.5 L754,288.000162 M495,128.5 L487,136.5 L479,128.5 L487,120.5 L495,128.5 M529,129 L522.501783,135.5 L516,129 L522.501783,122.5 L529,129 M563,128.5 L558,133.5 L553,128.5 L558,123.5 L563,128.5 M597,128.5 L593,132.5 L589,128.5 L593,124.5 L597,128.5 M632,129 L628.5,132.5 L625,129 L628.5,125.5 L632,129 M512,111.5 L505,118.5 L498,111.5 L505,104.5 L512,111.5 M546,111.5 L540,117.5 L534,111.5 L540,105.5 L546,111.5 M580,111 L575.501694,115.5 L571,111 L575.501694,106.5 L580,111 M615,111.5 L611,115.5 L607,111.5 L611,107.5 L615,111.5 M649,111.5 L646,114.5 L643,111.5 L646,108.5 L649,111.5 M529,94 L522.501783,100.5 L516,94 L522.501783,87.5 L529,94 M563,93.5 L558,98.5 L553,93.5 L558,88.5 L563,93.5 M597,93.5 L593,97.5 L589,93.5 L593,89.5 L597,93.5 M632,94 L628.5,97.5 L625,94 L628.5,90.5 L632,94 M667,93.5 L664.001912,96.5 L661,93.5 L664.001912,90.5 L667,93.5 M546,75.5 L540,81.5 L534,75.5 L540,69.5 L546,75.5 M580,76 L575.501694,80.5 L571,76 L575.501694,71.5 L580,76 M615,75.5 L611,79.5 L607,75.5 L611,71.5 L615,75.5 M649,75.5 L646,78.5 L643,75.5 L646,72.5 L649,75.5 M684,76 L681.5,78.5 L679,76 L681.5,73.5 L684,76 M563,58.5 L558,63.5 L553,58.5 L558,53.5 L563,58.5 M597,58.5 L593,62.5 L589,58.5 L593,54.5 L597,58.5 M632,58 L628.5,61.5 L625,58 L628.5,54.5 L632,58 M667,58.5 L664.001912,61.5 L661,58.5 L664.001912,55.5 L667,58.5 M701,58.5 L699.001574,60.5 L697,58.5 L699.001574,56.5 L701,58.5 M580,41 L575.501694,45.5 L571,41 L575.501694,36.5 L580,41 M615,40.5 L611,44.5 L607,40.5 L611,36.5 L615,40.5 M649,40.5 L646,43.5 L643,40.5 L646,37.5 L649,40.5 M684,41 L681.5,43.5 L679,41 L681.5,38.5 L684,41 M719,40.5 L717,42.5 L715,40.5 L717,38.5 L719,40.5 M597,22.5 L593,26.5 L589,22.5 L593,18.5 L597,22.5 M632,23 L628.5,26.5 L625,23 L628.5,19.5 L632,23 M667,22.5 L664.001912,25.5 L661,22.5 L664.001912,19.5 L667,22.5 M701,22.5 L699.001574,24.5 L697,22.5 L699.001574,20.5 L701,22.5 M737,22.5 L735,24.5 L733,22.5 L735,20.5 L737,22.5 M615,5.5 L611,9.5 L607,5.5 L611,1.5 L615,5.5 M649,5.5 L646,8.5 L643,5.5 L646,2.5 L649,5.5 M684,5 L681.5,7.5 L679,5 L681.5,2.5 L684,5 M719,5.5 L717,7.5 L715,5.5 L717,3.5 L719,5.5 M754,5 L752.5,6.5 L751,5 L752.5,3.5 L754,5" id="shape-down-purple" transform="translate(607.500000, 146.500000) scale(1, -1) rotate(-270.000000) translate(-607.500000, -146.500000) "></path></g></g></g></svg>