<svg xmlns="http://www.w3.org/2000/svg" width="293" height="290" viewBox="0 0 293 290"><path d="m275 145 9-9 9 9-9 9-9-9m-33 0 7-7 7 7-7 7-7-7m-34 0 6-6 6 6-6 6-6-6m-34-.5 4.5-4.5 4.5 4.5-4.5 4.5-4.5-4.5m-35 .5 4-4 4 4-4 4-4-4m120-18 8-8 8 8-8 8-8-8m-34 .5 6.5-6.5 6.5 6.5-6.5 6.5-6.5-6.5m-34-.5 5-5 5 5-5 5-5-5m-34 0 4-4 4 4-4 4-4-4m-35 .5 3.5-3.5 3.5 3.5-3.5 3.5-3.5-3.5M242 110l7-7 7 7-7 7-7-7m-34 0 6-6 6 6-6 6-6-6m-34-.5 4.5-4.5 4.5 4.5-4.5 4.5-4.5-4.5m-35 .5 4-4 4 4-4 4-4-4m-34 0 3-3 3 3-3 3-3-3m120-17.5 6.5-6.5 6.5 6.5-6.5 6.5-6.5-6.5m-34-.5 5-5 5 5-5 5-5-5m-34 0 4-4 4 4-4 4-4-4m-35 .5 3.5-3.5 3.5 3.5-3.5 3.5-3.5-3.5M87 92l3-3 3 3-3 3-3-3m121-18 6-6 6 6-6 6-6-6m-34 .5 4.5-4.5 4.5 4.5-4.5 4.5-4.5-4.5m-35-.5 4-4 4 4-4 4-4-4m-34 0 3-3 3 3-3 3-3-3m-35 .5 2.5-2.5 2.5 2.5-2.5 2.5-2.5-2.5M191 57l5-5 5 5-5 5-5-5m-34 0 4-4 4 4-4 4-4-4m-35-.5 3.5-3.5 3.5 3.5-3.5 3.5-3.5-3.5M87 57l3-3 3 3-3 3-3-3m-34 0 2-2 2 2-2 2-2-2m121-17.5 4.5-4.5 4.5 4.5-4.5 4.5-4.5-4.5m-35-.5 4-4 4 4-4 4-4-4m-34 0 3-3 3 3-3 3-3-3m-35 .5 2.5-2.5 2.5 2.5-2.5 2.5-2.5-2.5M35 39l2-2 2 2-2 2-2-2m122-18 4-4 4 4-4 4-4-4m-35 .5 3.5-3.5 3.5 3.5-3.5 3.5-3.5-3.5M87 21l3-3 3 3-3 3-3-3m-34 0 2-2 2 2-2 2-2-2m-36 0 2-2 2 2-2 2-2-2M139 4l4-4 4 4-4 4-4-4m-34 0 3-3 3 3-3 3-3-3m-35-.5L72.5 1 75 3.5 72.5 6 70 3.5M35 4l2-2 2 2-2 2-2-2M0 3.5 1.5 2 3 3.5 1.5 5 0 3.5M259 163l8-8 8 8-8 8-8-8m-34-.5 6.5-6.5 6.5 6.5-6.5 6.5-6.5-6.5m-34 .5 5-5 5 5-5 5-5-5m-34 0 4-4 4 4-4 4-4-4m-35-.5 3.5-3.5 3.5 3.5-3.5 3.5-3.5-3.5M242 180l7-7 7 7-7 7-7-7m-34 0 6-6 6 6-6 6-6-6m-34 .5 4.5-4.5 4.5 4.5-4.5 4.5-4.5-4.5m-35-.5 4-4 4 4-4 4-4-4m-34 0 3-3 3 3-3 3-3-3m120 17.5 6.5-6.5 6.5 6.5-6.5 6.5-6.5-6.5m-34 .5 5-5 5 5-5 5-5-5m-34 0 4-4 4 4-4 4-4-4m-35-.5 3.5-3.5 3.5 3.5-3.5 3.5-3.5-3.5m-35 .5 3-3 3 3-3 3-3-3m121 18 6-6 6 6-6 6-6-6m-34-.5 4.5-4.5 4.5 4.5-4.5 4.5-4.5-4.5m-35 .5 4-4 4 4-4 4-4-4m-34 0 3-3 3 3-3 3-3-3m-35-.5 2.5-2.5 2.5 2.5-2.5 2.5-2.5-2.5M191 233l5-5 5 5-5 5-5-5m-34 0 4-4 4 4-4 4-4-4m-35 .5 3.5-3.5 3.5 3.5-3.5 3.5-3.5-3.5m-35-.5 3-3 3 3-3 3-3-3m-34 0 2-2 2 2-2 2-2-2m121 17.5 4.5-4.5 4.5 4.5-4.5 4.5-4.5-4.5m-35 .5 4-4 4 4-4 4-4-4m-34 0 3-3 3 3-3 3-3-3m-35-.5 2.5-2.5 2.5 2.5-2.5 2.5-2.5-2.5m-35 .5 2-2 2 2-2 2-2-2m122 18 4-4 4 4-4 4-4-4m-35-.5 3.5-3.5 3.5 3.5-3.5 3.5-3.5-3.5m-35 .5 3-3 3 3-3 3-3-3m-34 0 2-2 2 2-2 2-2-2m-36 0 2-2 2 2-2 2-2-2m122 17 4-4 4 4-4 4-4-4m-34 0 3-3 3 3-3 3-3-3m-35 .5 2.5-2.5 2.5 2.5-2.5 2.5-2.5-2.5m-35-.5 2-2 2 2-2 2-2-2m-35 .5 1.5-1.5 1.5 1.5-1.5 1.5-1.5-1.5" fill="#FFF" fill-rule="evenodd"></path></svg>