<svg xmlns="http://www.w3.org/2000/svg" width="129" height="45" viewBox="0 0 129 45"><g fill="none" fill-rule="evenodd"><path d="M12.95 42.43c1.22.72 2.84 1.33 4.88 1.82 2.04.5 3.88.75 5.53.75 2.56 0 4.79-.4 6.7-1.21 1.92-.81 3.39-1.92 4.41-3.32 1.03-1.4 1.54-3 1.54-4.8 0-1.62-.45-3.08-1.37-4.37a14.55 14.55 0 0 0-3.34-3.36 54.37 54.37 0 0 0-4.9-3.1l-1.68-.93-.58-.31a16.7 16.7 0 0 1-1.83-1.12c-.48-.36-.72-.77-.72-1.23 0-.63.29-1.16.86-1.6a3.65 3.65 0 0 1 2.27-.64c1.06 0 2.03.09 2.92.28.88.18 2.15.56 3.8 1.12l2.52-5.74a14.99 14.99 0 0 0-4.36-1.92 18.7 18.7 0 0 0-4.98-.7c-2.36 0-4.43.4-6.2 1.17a9.68 9.68 0 0 0-4.14 3.24 7.92 7.92 0 0 0-1.47 4.7c0 1.64.47 3.12 1.4 4.43.94 1.3 2 2.37 3.18 3.2l.53.36c1.13.76 2.6 1.67 4.42 2.74l1.44.84.85.5c.79.48 1.38.86 1.8 1.15.54.4.8.79.8 1.2 0 .62-.37 1.18-1.11 1.7-.75.51-1.74.77-2.99.77-1.12 0-2.42-.21-3.9-.63a15.05 15.05 0 0 1-3.47-1.38l-2.8 6.4Zm35.3 1.96v-7.28l1.53-1.16 4.49 8.44h9.15l-7.66-12.92 6.02-4.53-5.09-5.83-8.45 7.14v-16.8l-8.5.5V44.4h8.5Zm41.77-11.2c0 2.46-.57 4.58-1.7 6.35a10.68 10.68 0 0 1-4.67 4.01c-1.98.9-4.2 1.36-6.65 1.36-3.8 0-6.86-1.02-9.17-3.06-2.32-2.04-3.48-5-3.48-8.89 0-2.46.57-4.6 1.7-6.42a11.05 11.05 0 0 1 4.62-4.15 14.65 14.65 0 0 1 6.52-1.42c2.52 0 4.74.46 6.67 1.4 1.93.93 3.44 2.31 4.53 4.15a12.86 12.86 0 0 1 1.63 6.67ZM77.1 38c1.34 0 2.37-.4 3.08-1.21.72-.81 1.08-2.01 1.08-3.6a6.5 6.5 0 0 0-1.05-3.82c-.7-1-1.68-1.5-2.92-1.5-1.3 0-2.33.45-3.06 1.36-.73.9-1.1 2.14-1.1 3.73 0 1.56.35 2.78 1.03 3.69.69.9 1.67 1.35 2.94 1.35Zm25.16 6.4V11.44l-8.5.5V44.4h8.5ZM129 32.72c0-2.18-.41-4.16-1.24-5.93a10.02 10.02 0 0 0-3.66-4.25 10.6 10.6 0 0 0-5.93-1.58c-2.3 0-4.38.49-6.23 1.47-1.85.98-3.3 2.38-4.37 4.22A12.67 12.67 0 0 0 106 33.1c0 2.49.57 4.63 1.72 6.42a10.69 10.69 0 0 0 4.79 4.03 17.2 17.2 0 0 0 7.02 1.36c1.84 0 3.64-.24 5.4-.7a12.2 12.2 0 0 0 4.03-1.73l-2.38-5.74c-1.99 1.03-4.06 1.54-6.2 1.54-1.4 0-2.53-.27-3.39-.82a4.1 4.1 0 0 1-1.75-2.26H129v-2.47ZM115 31c-.04-.84.25-1.59.86-2.24.6-.65 1.3-.98 2.08-.98.96 0 1.7.34 2.2 1.03.49.68.74 1.41.74 2.19H115Z" fill="#F5F5F5" fill-rule="nonzero"></path><path d="M3.54 7.82c-.12.65-.25 1.12.24 1.55.49.42 1.92.84 2.67 2.1.76 1.26 1.95 1.26 2.28 1.02.33-.24 1.41-1.1-.23-2.6C6.87 8.4 5.8 7.07 5.25 6.7c-.56-.36-1.59.46-1.7 1.12Z" fill="#F68F29"></path><path d="M.84 16.39c.27.6.43 1.07 1.07 1.15.64.08 2.06-.37 3.4.25 1.33.62 2.38-.55 2.52-.93.14-.39.48-1.2-1.71-1.52-2.2-.33-3.3-.72-4.49-.83-1.17-.1-1.05 1.27-.79 1.88Z" fill="#E74C25"></path><path d="M11.04 1.49c-.4.52-.75.88-.51 1.48.23.6 1.36 2.76 1.44 4.23.08 1.46.66 2.42 1.03 2.37.38-.05 2-1 1.52-2.8-.48-1.83-1.35-5.5-1.67-6.1-.32-.57-1.4.3-1.8.82Z" fill="#56BD7D"></path></g></svg>